<?xml version="1.0"?>
<svg xmlns="http://www.w3.org/2000/svg" height="512px" viewBox="0 -80 512 512" width="512px" class=""><g><path d="m512 352h-71.679688l-64-80h-24.320312v48c0 17.671875-14.328125 32-32 32h-288c-17.671875 0-32-14.328125-32-32v-288c0-17.671875 14.328125-32 32-32h288c17.671875 0 32 14.328125 32 32v48h24.320312l64-80h71.679688zm0 0" fill="#708299" data-original="#708299" class="active-path" style="fill:#606060" data-old_color="#708299"/><path d="m48 64h32v32h-32zm0 0" fill="#fff" data-original="#FFF"/><path d="m112 64h32v32h-32zm0 0" fill="#fff" data-original="#FFF"/><path d="m0 192v128c0 17.671875 14.328125 32 32 32h288c17.671875 0 32-14.328125 32-32v-48h24.320312l64 80h71.679688v-160zm0 0" fill="#68788e" data-original="#68788E" class="" style="fill:#606060" data-old_color="#68788e"/></g> </svg>
